<svg xmlns="http://www.w3.org/2000/svg" viewBox="0 0 925 988" width="925" height="988">
	<style>
		tspan { white-space:pre }
		.shp0 { fill: #f4fafe } 
	</style>
	<g id="Hero">
		<path id="Bg. Shape" class="shp0" d="M925 5.31C835.72 14.22 811.34 102.26 606.72 23.7C477.05 -26.08 398.05 17.12 362.72 31.31C344.19 38.76 326.84 49.59 312.26 63.7C276.78 98.03 268.33 150.98 283.37 200.7L283.35 200.71C291.21 227.36 285.09 259.23 264.31 285.21C240.97 314.37 205.57 328.08 174.09 323.27C164.52 321.35 154.6 320.33 144.41 320.33C65.16 320.33 0.19 381.42 0.19 458.11C0.19 494.2 14.41 527.06 37.73 551.75C55.18 571.27 66.08 598.87 66.08 629.5C66.08 655.13 58.44 678.65 45.72 697.08C25.58 721.16 13.63 751.13 13.63 783.62C13.63 863.09 85.1 927.51 173.27 927.51C202.61 927.51 230.1 920.37 253.73 907.92C291.99 889.9 340.23 879.15 392.66 879.15C472.51 879.15 542.65 904.07 582.63 941.65L582.64 941.64C614.37 970.18 657.59 987.74 705.22 987.74C770.26 987.74 827.06 955.01 857.64 906.29C866.77 893.81 893.85 861.69 925 870.61L925 5.31Z" />
	</g>
</svg>